<?xml version="1.0" encoding="UTF-8"?>
<svg version="1.1" xmlns="http://www.w3.org/2000/svg" width="447" height="70">
<path d="M0 0 C1.33278992 0.00303635 1.33278992 0.00303635 2.69250488 0.00613403 C3.5987561 0.00517731 4.50500732 0.00422058 5.4387207 0.00323486 C7.35876535 0.002553 9.27881229 0.00440771 11.19885254 0.00857544 C14.14861192 0.01392361 17.09821902 0.00863066 20.04797363 0.00222778 C21.90865105 0.00288856 23.76932838 0.00416972 25.63000488 0.00613403 C26.51853149 0.0041098 27.40705811 0.00208557 28.32250977 0 C34.546305 0.02399665 34.546305 0.02399665 35.66125488 1.13894653 C35.75949425 2.80323705 35.79099119 4.47176584 35.78625488 6.13894653 C35.79012207 7.50019653 35.79012207 7.50019653 35.79406738 8.88894653 C35.66125488 11.13894653 35.66125488 11.13894653 34.66125488 12.13894653 C32.6416129 12.21138706 30.61958365 12.22271841 28.59875488 12.20144653 C26.94166504 12.18791138 26.94166504 12.18791138 25.25109863 12.17410278 C24.3964502 12.16250122 23.54180176 12.15089966 22.66125488 12.13894653 C22.66125488 13.12894653 22.66125488 14.11894653 22.66125488 15.13894653 C23.6370752 15.08093872 24.61289551 15.02293091 25.61828613 14.96316528 C26.89059082 14.9180481 28.16289551 14.87293091 29.47375488 14.82644653 C31.37061035 14.73943481 31.37061035 14.73943481 33.30578613 14.65066528 C36.66125488 15.13894653 36.66125488 15.13894653 38.61047363 17.53347778 C39.66125488 20.13894653 39.66125488 20.13894653 39.66125488 22.13894653 C40.96062988 22.11832153 42.26000488 22.09769653 43.59875488 22.07644653 C44.95291122 22.05495199 46.30881571 22.06746455 47.66125488 22.13894653 C48.66125488 23.13894653 48.66125488 23.13894653 48.75891113 26.51785278 C48.75223858 27.91241731 48.7402802 29.30696396 48.72375488 30.70144653 C48.71924316 31.4123645 48.71473145 32.12328247 48.71008301 32.85574341 C48.69826352 34.61684667 48.68032751 36.37790689 48.66125488 38.13894653 C49.65125488 38.13894653 50.64125488 38.13894653 51.66125488 38.13894653 C51.57875488 37.25207153 51.49625488 36.36519653 51.41125488 35.45144653 C51.72423282 31.30448885 52.57964206 29.9044965 55.66125488 27.13894653 C59.33172029 26.13791051 61.7780768 25.92305856 65.47375488 26.82644653 C68.11932866 28.4137908 68.57956474 29.27444855 69.66125488 32.13894653 C69.92004395 35.19168091 69.92004395 35.19168091 69.92687988 38.73269653 C69.93074707 40.64888794 69.93074707 40.64888794 69.93469238 42.60379028 C69.93050293 43.26620728 69.92631348 43.92862427 69.92199707 44.6111145 C69.91128948 46.63241596 69.92190885 48.65282879 69.93469238 50.67410278 C69.93211426 51.95156372 69.92953613 53.22902466 69.92687988 54.54519653 C69.92462402 55.71373169 69.92236816 56.88226685 69.92004395 58.08621216 C69.67001582 61.03560056 69.25693744 62.68294547 67.66125488 65.13894653 C65.07764321 67.22570981 62.86328756 67.27880548 59.66125488 67.07644653 C56.41739923 66.5680811 55.69997922 66.17476655 53.16125488 63.82644653 C51.66125488 61.13894653 51.66125488 61.13894653 51.66125488 57.13894653 C50.67125488 57.13894653 49.68125488 57.13894653 48.66125488 57.13894653 C48.66125488 61.09894653 48.66125488 65.05894653 48.66125488 69.13894653 C42.77144003 69.26270614 36.88238477 69.35336167 30.99157715 69.41360474 C28.98851332 69.43872203 26.9855409 69.47282248 24.98278809 69.5161438 C22.10064122 69.57691842 19.21970767 69.60518385 16.33703613 69.62722778 C14.99769768 69.66593742 14.99769768 69.66593742 13.63130188 69.70542908 C7.31510145 69.7082671 7.31510145 69.7082671 3.80578613 66.65261841 C3.09809082 65.82310669 2.39039551 64.99359497 1.66125488 64.13894653 C-0.32806778 63.38797018 -0.32806778 63.38797018 -2.32702637 63.43191528 C-3.03278809 63.40291138 -3.7385498 63.37390747 -4.46569824 63.34402466 C-5.18692871 63.33822388 -5.90815918 63.3324231 -6.65124512 63.32644653 C-7.39181152 63.30130981 -8.13237793 63.2761731 -8.89538574 63.25027466 C-10.7092748 63.19176211 -12.52406414 63.16240304 -14.33874512 63.13894653 C-14.33874512 58.84894653 -14.33874512 54.55894653 -14.33874512 50.13894653 C-15.32874512 50.13894653 -16.31874512 50.13894653 -17.33874512 50.13894653 C-17.31812012 51.43832153 -17.29749512 52.73769653 -17.27624512 54.07644653 C-17.25475057 55.43060287 -17.26726313 56.78650736 -17.33874512 58.13894653 C-18.33874512 59.13894653 -18.33874512 59.13894653 -20.80749512 59.27175903 C-22.30796387 59.26789185 -22.30796387 59.26789185 -23.83874512 59.26394653 C-24.83905762 59.26652466 -25.83937012 59.26910278 -26.86999512 59.27175903 C-29.33874512 59.13894653 -29.33874512 59.13894653 -30.33874512 58.13894653 C-30.55684268 53.88146227 -30.52453673 49.61848929 -30.52404785 45.35598755 C-30.52623254 43.21377654 -30.54438024 41.07208182 -30.56335449 38.92996216 C-30.56628871 37.57384413 -30.56827332 36.21772366 -30.56921387 34.86160278 C-30.57332275 33.62160522 -30.57743164 32.38160767 -30.58166504 31.10403442 C-30.33874512 28.13894653 -30.33874512 28.13894653 -28.33874512 26.13894653 C-26.24499512 25.87332153 -26.24499512 25.87332153 -23.83874512 25.88894653 C-23.04468262 25.88379028 -22.25062012 25.87863403 -21.43249512 25.87332153 C-19.33874512 26.13894653 -19.33874512 26.13894653 -17.33874512 28.13894653 C-17.14343262 30.52175903 -17.14343262 30.52175903 -17.21374512 33.26394653 C-17.23179199 34.17402466 -17.24983887 35.08410278 -17.26843262 36.02175903 C-17.29163574 36.72043091 -17.31483887 37.41910278 -17.33874512 38.13894653 C-16.34874512 38.13894653 -15.35874512 38.13894653 -14.33874512 38.13894653 C-14.33874512 33.18894653 -14.33874512 28.23894653 -14.33874512 23.13894653 C-13.10124512 22.93269653 -11.86374512 22.72644653 -10.58874512 22.51394653 C-6.89159416 21.63490365 -6.52355242 21.42770795 -4.33874512 18.01394653 C-2.33874512 15.13894653 -2.33874512 15.13894653 -0.32312012 14.74832153 C1.91125488 14.76394653 1.91125488 14.76394653 5.66125488 15.13894653 C5.66125488 14.14894653 5.66125488 13.15894653 5.66125488 12.13894653 C4.50496582 12.17375122 4.50496582 12.17375122 3.32531738 12.20925903 C2.32242676 12.22730591 1.31953613 12.24535278 0.28625488 12.26394653 C-0.71147949 12.28714966 -1.70921387 12.31035278 -2.73718262 12.33425903 C-5.33874512 12.13894653 -5.33874512 12.13894653 -7.33874512 10.13894653 C-7.56921387 8.01004028 -7.56921387 8.01004028 -7.52624512 5.57644653 C-7.5197998 4.77078247 -7.51335449 3.96511841 -7.50671387 3.13504028 C-7.13385619 -1.29589626 -3.67774341 0.01418002 0 0 Z M10.66125488 12.13894653 C10.66125488 13.12894653 10.66125488 14.11894653 10.66125488 15.13894653 C12.97125488 15.13894653 15.28125488 15.13894653 17.66125488 15.13894653 C17.66125488 14.14894653 17.66125488 13.15894653 17.66125488 12.13894653 C15.35125488 12.13894653 13.04125488 12.13894653 10.66125488 12.13894653 Z M-17.33874512 42.13894653 C-17.33874512 43.12894653 -17.33874512 44.11894653 -17.33874512 45.13894653 C-16.34874512 45.13894653 -15.35874512 45.13894653 -14.33874512 45.13894653 C-14.33874512 44.14894653 -14.33874512 43.15894653 -14.33874512 42.13894653 C-15.32874512 42.13894653 -16.31874512 42.13894653 -17.33874512 42.13894653 Z M48.66125488 42.13894653 C48.66125488 45.76894653 48.66125488 49.39894653 48.66125488 53.13894653 C49.65125488 53.13894653 50.64125488 53.13894653 51.66125488 53.13894653 C51.66125488 49.50894653 51.66125488 45.87894653 51.66125488 42.13894653 C50.67125488 42.13894653 49.68125488 42.13894653 48.66125488 42.13894653 Z " fill="#101010" transform="translate(202.3387451171875,0.861053466796875)"/>
<path d="M0 0 C3.63 0 7.26 0 11 0 C11.99 5.61 12.98 11.22 14 17 C14.28917395 11.7796934 14.28917395 11.7796934 14.56811523 6.55883789 C14.88888889 1.11111111 14.88888889 1.11111111 16 0 C17.98 0 19.96 0 22 0 C22 15.51 22 31.02 22 47 C18.7 47 15.4 47 12 47 C10.39931288 45.39931288 10.55017293 43.51647303 10.24609375 41.30859375 C10.1267749 40.45837646 10.00745605 39.60815918 9.88452148 38.73217773 C9.73700439 37.64493408 9.5894873 36.55769043 9.4375 35.4375 C8.963125 31.993125 8.48875 28.54875 8 25 C7.67 32.26 7.34 39.52 7 47 C4.69 47 2.38 47 0 47 C0 31.49 0 15.98 0 0 Z " fill="#0E0E0E" transform="translate(34,13)"/>
<path d="M0 0 C2.57161458 0.03255208 5.14322917 0.06510417 7.71484375 0.09765625 C8.70484375 5.70765625 9.69484375 11.31765625 10.71484375 17.09765625 C10.85921875 14.84953125 11.00359375 12.60140625 11.15234375 10.28515625 C11.58984375 3.47265625 11.58984375 3.47265625 12.71484375 0.09765625 C14.69484375 0.09765625 16.67484375 0.09765625 18.71484375 0.09765625 C19.90260912 2.47318699 19.80305905 3.81086998 19.73657227 6.45556641 C19.70642784 7.80674057 19.70642784 7.80674057 19.67567444 9.18521118 C19.64863937 10.15920868 19.62160431 11.13320618 19.59375 12.13671875 C19.57013901 13.13271088 19.54652802 14.128703 19.52220154 15.15487671 C19.44546728 18.34427806 19.36148491 21.53344253 19.27734375 24.72265625 C19.22413284 26.88149872 19.17139239 29.04035285 19.11914062 31.19921875 C18.9898389 36.49884866 18.8540353 41.79827724 18.71484375 47.09765625 C15.41484375 47.09765625 12.11484375 47.09765625 8.71484375 47.09765625 C6.98460786 39.80594785 5.80755781 32.51250168 4.71484375 25.09765625 C4.38484375 32.35765625 4.05484375 39.61765625 3.71484375 47.09765625 C1.40484375 47.09765625 -0.90515625 47.09765625 -3.28515625 47.09765625 C-3.31042627 40.56486839 -3.32798917 34.03209304 -3.34008789 27.49926758 C-3.34512942 25.27497893 -3.35196248 23.05069362 -3.3605957 20.82641602 C-3.37266923 17.63687316 -3.37838621 14.44737396 -3.3828125 11.2578125 C-3.38797379 10.25677994 -3.39313507 9.25574738 -3.39845276 8.22438049 C-3.39852829 7.30350143 -3.39860382 6.38262238 -3.39868164 5.43383789 C-3.40090225 4.61887344 -3.40312286 3.803909 -3.40541077 2.96424866 C-3.22493579 0.16291338 -2.80411904 0.11983415 0 0 Z " fill="#0D0D0D" transform="translate(108.28515625,12.90234375)"/>
<path d="M0 0 C2.5 1.5625 2.5 1.5625 4 4 C4.8125 7.6875 4.8125 7.6875 5 11 C4 12 4 12 0.4375 12.0625 C-0.696875 12.041875 -1.83125 12.02125 -3 12 C-3 10.35 -3 8.7 -3 7 C-3.99 7.33 -4.98 7.66 -6 8 C-6 18.23 -6 28.46 -6 39 C-5.01 39.33 -4.02 39.66 -3 40 C-3 34.39 -3 28.78 -3 23 C-3.99 23 -4.98 23 -6 23 C-6 20.69 -6 18.38 -6 16 C-2.37 16 1.26 16 5 16 C5.05400523 19.72936099 5.09367794 23.45793778 5.125 27.1875 C5.14175781 28.24259766 5.15851563 29.29769531 5.17578125 30.38476562 C5.18222656 31.40634766 5.18867187 32.42792969 5.1953125 33.48046875 C5.20578613 34.41785889 5.21625977 35.35524902 5.22705078 36.32104492 C4.90531093 40.11722918 3.92657702 42.96651024 1.375 45.8125 C-2.07940156 47.53970078 -5.21353734 47.72308219 -9 47 C-11.43119623 45.12984906 -12.64069173 43.71861655 -14 41 C-14.12300902 38.51670891 -14.18834888 36.06254443 -14.203125 33.578125 C-14.20882507 32.84051941 -14.21452515 32.10291382 -14.22039795 31.34295654 C-14.22985133 29.77943354 -14.23638327 28.21589059 -14.24023438 26.65234375 C-14.24990619 24.27307732 -14.28091079 21.89468736 -14.3125 19.515625 C-14.3190337 17.99479678 -14.32428273 16.4739624 -14.328125 14.953125 C-14.3404718 14.24665833 -14.3528186 13.54019165 -14.36553955 12.81231689 C-14.34475558 8.14596631 -13.47455114 4.95657081 -11 1 C-7.53803482 -0.73098259 -3.78545073 -0.47149742 0 0 Z " fill="#0C0C0C" transform="translate(78,13)"/>
<path d="M0 0 C2.31 0 4.62 0 7 0 C7.33 12.54 7.66 25.08 8 38 C9.98 37.505 9.98 37.505 12 37 C12.33 24.79 12.66 12.58 13 0 C15.31 0 17.62 0 20 0 C20.07440448 5.15947346 20.12872191 10.31863151 20.16479492 15.47851562 C20.17983995 17.23215173 20.20028104 18.98575047 20.22631836 20.73925781 C20.26289121 23.26637009 20.2797692 25.79298296 20.29296875 28.3203125 C20.30845261 29.09867462 20.32393646 29.87703674 20.33988953 30.6789856 C20.34137391 35.5286936 19.65278559 38.78348813 17 43 C13.93995056 45.63504257 12.50311118 46.00882651 8.4375 45.9375 C4.72267858 44.92436688 3.35059461 43.983447 1 41 C-0.66577625 37.66844749 -0.12007856 33.93463941 -0.09765625 30.2734375 C-0.0962413 29.41062164 -0.09482635 28.54780579 -0.09336853 27.65884399 C-0.08776188 24.8975277 -0.07520827 22.13629188 -0.0625 19.375 C-0.05748586 17.5052095 -0.0529228 15.63541774 -0.04882812 13.765625 C-0.03779029 9.17705223 -0.0205212 4.58853977 0 0 Z " fill="#0C0C0C" transform="translate(345,14)"/>
<path d="M0 0 C3.21747966 4.02313247 3.45437145 7.77988923 3.43359375 12.75 C3.4388356 13.48573242 3.44407745 14.22146484 3.44947815 14.97949219 C3.45587877 16.52928408 3.45458677 18.07912468 3.44604492 19.62890625 C3.43752497 21.99307037 3.46633447 24.35482365 3.49804688 26.71875 C3.49965894 28.22916595 3.49908125 29.73958615 3.49609375 31.25 C3.51294472 32.3033252 3.51294472 32.3033252 3.53013611 33.37792969 C3.46228196 38.18213471 2.40748812 40.63029332 -1 44 C-3.66326688 45.14896404 -6.12243585 45.30831044 -9 45 C-11.85993478 43.23535939 -13.49782849 42.00434303 -15 39 C-15.12298713 36.50503837 -15.1883444 34.03905183 -15.203125 31.54296875 C-15.20882507 30.80299149 -15.21452515 30.06301422 -15.22039795 29.3006134 C-15.22985018 27.73289419 -15.23638282 26.16515509 -15.24023438 24.59741211 C-15.24992032 22.20716293 -15.28093195 19.81778095 -15.3125 17.42773438 C-15.31903223 15.90365093 -15.32428184 14.37956135 -15.328125 12.85546875 C-15.3404718 12.14384079 -15.3528186 11.43221283 -15.36553955 10.69902039 C-15.34587635 6.28380722 -14.71006142 3.51090988 -12 0 C-7.68270631 -2.75827097 -4.581824 -1.95151763 0 0 Z M-7 5 C-8.33996932 6.11347596 -8.33996932 6.11347596 -8.11352539 8.95922852 C-8.10828857 10.25272217 -8.10305176 11.54621582 -8.09765625 12.87890625 C-8.0962413 13.5655687 -8.09482635 14.25223114 -8.09336853 14.95970154 C-8.08775479 17.16067801 -8.07520007 19.36155409 -8.0625 21.5625 C-8.05748676 23.05143083 -8.05292355 24.54036324 -8.04882812 26.02929688 C-8.03778093 29.68623075 -8.02050713 33.34310558 -8 37 C-6.68 37 -5.36 37 -4 37 C-4 26.77 -4 16.54 -4 6 C-4.99 5.67 -5.98 5.34 -7 5 Z " fill="#0D0D0D" transform="translate(334,15)"/>
<path d="M0 0 C4.29 0 8.58 0 13 0 C17 4 17 4 17.48583984 6.99267578 C17.47351318 8.70173096 17.47351318 8.70173096 17.4609375 10.4453125 C17.45707031 11.68667969 17.45320313 12.92804687 17.44921875 14.20703125 C17.42472656 15.49996094 17.40023438 16.79289062 17.375 18.125 C17.37371094 19.42566406 17.37242187 20.72632813 17.37109375 22.06640625 C17.28069196 31.71930804 17.28069196 31.71930804 15 34 C15.46871403 38.1012478 16.83756544 42.04772249 18 46 C15.36 46 12.72 46 10 46 C9.01 43.36 8.02 40.72 7 38 C6.67 40.64 6.34 43.28 6 46 C4.02 46 2.04 46 0 46 C0 30.82 0 15.64 0 0 Z M6 7 C6 14.26 6 21.52 6 29 C7.65 29 9.3 29 11 29 C11 22.07 11 15.14 11 8 C9.35 7.67 7.7 7.34 6 7 Z " fill="#0B0B0B" transform="translate(373,14)"/>
<path d="M0 0 C2.43119623 1.87015094 3.64069173 3.28138345 5 6 C5.06996014 7.70702735 5.08440154 9.41668003 5.0625 11.125 C5.05347656 12.03507812 5.04445313 12.94515625 5.03515625 13.8828125 C5.02355469 14.58148438 5.01195312 15.28015625 5 16 C2.69 16 0.38 16 -2 16 C-2.33 13.36 -2.66 10.72 -3 8 C-3.99 7.67 -4.98 7.34 -6 7 C-5.53916643 13.71925075 -3.7175018 17.70762738 0.625 22.875 C4.8478098 28.14501223 6.1114657 31.69307718 5.57421875 38.421875 C4.82004182 41.80797551 3.63719712 43.75062599 1 46 C-2.13871188 47.56935594 -4.53855822 47.35201103 -8 47 C-10.9375 45.1875 -10.9375 45.1875 -13 42 C-13.40594933 38.29441128 -13.29247067 34.7111278 -13 31 C-10.69 31 -8.38 31 -6 31 C-6 33.97 -6 36.94 -6 40 C-4.68 40 -3.36 40 -2 40 C-2.46083357 33.28074925 -4.2824982 29.29237262 -8.625 24.125 C-12.85726711 18.85167683 -13.93764837 15.39365412 -13.609375 8.69140625 C-12.91539565 5.62633079 -11.81852784 3.55224081 -10 1 C-6.80766515 -0.59616743 -3.46538503 -0.51466114 0 0 Z " fill="#0C0C0C" transform="translate(306,13)"/>
<path d="M0 0 C1.39456452 0.00667256 2.78911118 0.01863093 4.18359375 0.03515625 C4.89451172 0.03966797 5.60542969 0.04417969 6.33789062 0.04882812 C8.09899388 0.06064761 9.86005411 0.07858362 11.62109375 0.09765625 C11.62109375 2.40765625 11.62109375 4.71765625 11.62109375 7.09765625 C8.65109375 7.09765625 5.68109375 7.09765625 2.62109375 7.09765625 C2.62109375 10.06765625 2.62109375 13.03765625 2.62109375 16.09765625 C5.59109375 16.09765625 8.56109375 16.09765625 11.62109375 16.09765625 C11.62109375 18.40765625 11.62109375 20.71765625 11.62109375 23.09765625 C8.65109375 23.09765625 5.68109375 23.09765625 2.62109375 23.09765625 C2.62109375 28.70765625 2.62109375 34.31765625 2.62109375 40.09765625 C5.59109375 40.09765625 8.56109375 40.09765625 11.62109375 40.09765625 C11.62109375 42.40765625 11.62109375 44.71765625 11.62109375 47.09765625 C6.34109375 47.09765625 1.06109375 47.09765625 -4.37890625 47.09765625 C-4.40354972 40.56486286 -4.42173916 34.03209627 -4.43383789 27.49926758 C-4.43887942 25.27497893 -4.44571248 23.05069362 -4.4543457 20.82641602 C-4.46641923 17.63687316 -4.47213621 14.44737396 -4.4765625 11.2578125 C-4.48172379 10.25677994 -4.48688507 9.25574738 -4.49220276 8.22438049 C-4.49227829 7.30350143 -4.49235382 6.38262238 -4.49243164 5.43383789 C-4.49465225 4.61887344 -4.49687286 3.803909 -4.49916077 2.96424866 C-4.28323311 -0.3873836 -3.45133497 0.09974957 0 0 Z " fill="#0C0C0C" transform="translate(139.37890625,12.90234375)"/>
<path d="M0 0 C4.95 0 9.9 0 15 0 C15 2.31 15 4.62 15 7 C12.36 7 9.72 7 7 7 C7 9.97 7 12.94 7 16 C9.64 16 12.28 16 15 16 C15 18.31 15 20.62 15 23 C12.36 23 9.72 23 7 23 C7 28.61 7 34.22 7 40 C9.64 40 12.28 40 15 40 C15 42.31 15 44.62 15 47 C10.05 47 5.1 47 0 47 C0 31.49 0 15.98 0 0 Z " fill="#0C0C0C" transform="translate(11,13)"/>
<path d="M0 0 C4.95 0 9.9 0 15 0 C15 2.31 15 4.62 15 7 C12.36 7 9.72 7 7 7 C7 9.64 7 12.28 7 15 C9.64 15 12.28 15 15 15 C15 17.31 15 19.62 15 22 C12.36 22 9.72 22 7 22 C7 27.61 7 33.22 7 39 C9.64 39 12.28 39 15 39 C15 41.31 15 43.62 15 46 C10.05 46 5.1 46 0 46 C0 30.82 0 15.64 0 0 Z " fill="#0C0C0C" transform="translate(425,14)"/>
<path d="M0 0 C3.9375 0.5625 3.9375 0.5625 6.375 2.125 C8.39102732 5.27000262 8.72805915 7.86237825 8.9375 11.5625 C7.9375 12.5625 7.9375 12.5625 4.875 12.625 C3.905625 12.604375 2.93625 12.58375 1.9375 12.5625 C1.834375 11.923125 1.73125 11.28375 1.625 10.625 C1.398125 9.944375 1.17125 9.26375 0.9375 8.5625 C-0.0525 8.2325 -1.0425 7.9025 -2.0625 7.5625 C-1.7325 17.7925 -1.4025 28.0225 -1.0625 38.5625 C-0.0725 38.5625 0.9175 38.5625 1.9375 38.5625 C1.9375 36.5825 1.9375 34.6025 1.9375 32.5625 C4.2475 32.5625 6.5575 32.5625 8.9375 32.5625 C8.59447871 40.58919821 8.59447871 40.58919821 6.25 44.0625 C3.34050196 45.94974197 1.40952675 46.49164231 -2.0625 46.5625 C-4.94122577 45.1885627 -6.81239437 43.81260563 -9.0625 41.5625 C-9.2991118 38.89642238 -9.41479229 36.33758167 -9.43359375 33.66796875 C-9.44262222 32.8835994 -9.4516507 32.09923004 -9.46095276 31.29109192 C-9.47547328 29.62924017 -9.48434647 27.96733101 -9.48803711 26.30541992 C-9.49990787 23.76968051 -9.54904796 21.23639537 -9.59960938 18.70117188 C-9.60907668 17.08594937 -9.61631025 15.47071192 -9.62109375 13.85546875 C-9.65039223 12.72240547 -9.65039223 12.72240547 -9.68028259 11.56645203 C-9.64588462 7.52593014 -9.22883658 5.76863843 -6.65869141 2.58349609 C-4.10947634 0.59906857 -3.15277812 -0.10655513 0 0 Z " fill="#0A0A0A" transform="translate(408.0625,13.4375)"/>
<path d="M0 0 C1.98 0 3.96 0 6 0 C6 15.51 6 31.02 6 47 C4.02 47 2.04 47 0 47 C0 31.49 0 15.98 0 0 Z " fill="#0C0C0C" transform="translate(91,13)"/>
<path d="M0 0 C1.37478516 0.01740234 1.37478516 0.01740234 2.77734375 0.03515625 C3.69644531 0.04417969 4.61554688 0.05320312 5.5625 0.0625 C6.27277344 0.07410156 6.98304687 0.08570313 7.71484375 0.09765625 C4.44417497 2.2781021 3.46065648 2.19623027 -0.28515625 2.09765625 C-1.74635895 3.3299921 -1.74635895 3.3299921 -1.39868164 7.06665039 C-1.39852245 8.83871232 -1.3928241 10.61077885 -1.3828125 12.3828125 C-1.38139755 13.31363144 -1.3799826 14.24445038 -1.37852478 15.20347595 C-1.37290797 18.18906816 -1.36035265 21.17458654 -1.34765625 24.16015625 C-1.34264341 26.17903538 -1.33808013 28.19791568 -1.33398438 30.21679688 C-1.32293308 35.17711197 -1.3056572 40.13737157 -1.28515625 45.09765625 C0.03484375 45.42765625 1.35484375 45.75765625 2.71484375 46.09765625 C3.04484375 45.10765625 3.37484375 44.11765625 3.71484375 43.09765625 C3.71484375 44.41765625 3.71484375 45.73765625 3.71484375 47.09765625 C1.40484375 47.09765625 -0.90515625 47.09765625 -3.28515625 47.09765625 C-3.31042627 40.56486839 -3.32798917 34.03209304 -3.34008789 27.49926758 C-3.34512942 25.27497893 -3.35196248 23.05069362 -3.3605957 20.82641602 C-3.37266923 17.63687316 -3.37838621 14.44737396 -3.3828125 11.2578125 C-3.38797379 10.25677994 -3.39313507 9.25574738 -3.39845276 8.22438049 C-3.39852829 7.30350143 -3.39860382 6.38262238 -3.39868164 5.43383789 C-3.40090225 4.61887344 -3.40312286 3.803909 -3.40541077 2.96424866 C-3.22493579 0.16291338 -2.80411904 0.11983415 0 0 Z " fill="#020202" transform="translate(108.28515625,12.90234375)"/>
<path d="M0 0 C3.63 0 7.26 0 11 0 C11.33 1.65 11.66 3.3 12 5 C11.46375 4.484375 10.9275 3.96875 10.375 3.4375 C7.58909628 1.39898873 7.58909628 1.39898873 2 3 C1.67 17.52 1.34 32.04 1 47 C0.67 47 0.34 47 0 47 C0 31.49 0 15.98 0 0 Z " fill="#040404" transform="translate(34,13)"/>
<path d="M0 0 C0.97608217 2.92824652 1.08226668 4.95613276 1 8 C-0.32 7.67 -1.64 7.34 -3 7 C-3 9.64 -3 12.28 -3 15 C-4.32 15.33 -5.64 15.66 -7 16 C-6.67 15.34 -6.34 14.68 -6 14 C-5.34 14 -4.68 14 -4 14 C-4 11.36 -4 8.72 -4 6 C-3.01 5.67 -2.02 5.34 -1 5 C-1.33 4.01 -1.66 3.02 -2 2 C-1.34 2 -0.68 2 0 2 C0 1.34 0 0.68 0 0 Z " fill="#060606" transform="translate(188,44)"/>
<path d="M0 0 C0.66 0.66 1.32 1.32 2 2 C1.9765625 5.0390625 1.9765625 5.0390625 1.625 8.625 C1.51414062 9.81351563 1.40328125 11.00203125 1.2890625 12.2265625 C1.19367187 13.14179687 1.09828125 14.05703125 1 15 C-1 13 -1 13 -1.23046875 10.21484375 C-1.21628906 9.13332031 -1.20210937 8.05179688 -1.1875 6.9375 C-1.18105469 5.85339844 -1.17460937 4.76929688 -1.16796875 3.65234375 C-1 1 -1 1 0 0 Z " fill="#060606" transform="translate(17,34)"/>
<path d="M0 0 C0.66 0.66 1.32 1.32 2 2 C2.99 1.67 3.98 1.34 5 1 C5.33 1.99 5.66 2.98 6 4 C5.01 4.495 5.01 4.495 4 5 C3.01 4.67 2.02 4.34 1 4 C1.20625 4.598125 1.4125 5.19625 1.625 5.8125 C2 8 2 8 0 11 C-1.84651134 7.88401212 -2.38079379 5.61754103 -2 2 C-1.34 1.34 -0.68 0.68 0 0 Z " fill="#060606" transform="translate(42,27)"/>
<path d="M0 0 C1.98 0 3.96 0 6 0 C7.66413655 3.3282731 6.81867406 6.99733973 6.5625 10.625 C6.51029297 11.42679688 6.45808594 12.22859375 6.40429688 13.0546875 C6.27451629 15.03679103 6.13790265 17.01844499 6 19 C5.67 19 5.34 19 5 19 C4.67 13.39 4.34 7.78 4 2 C2.68 1.34 1.36 0.68 0 0 Z " fill="#050505" transform="translate(121,13)"/>
<path d="M0 0 C0.33 0 0.66 0 1 0 C1.02688151 1.64574566 1.04634123 3.29161413 1.0625 4.9375 C1.07410156 5.85402344 1.08570313 6.77054688 1.09765625 7.71484375 C1 10 1 10 0 11 C-2.67058851 11.14115161 -5.32432238 11.04247107 -8 11 C-7.67 10.34 -7.34 9.68 -7 9 C-5.02 9.495 -5.02 9.495 -3 10 C-2.67 9.34 -2.34 8.68 -2 8 C-1.67 7.67 -1.34 7.34 -1 7 C-0.63239269 4.67182036 -0.29758419 2.3381615 0 0 Z " fill="#080808" transform="translate(237,2)"/>
<path d="M0 0 C-0.25 1.875 -0.25 1.875 -1 4 C-3.95545121 6.11103658 -6.43855901 6.19785783 -10 6 C-2.6 0 -2.6 0 0 0 Z " fill="#080808" transform="translate(271,62)"/>
<path d="M0 0 C0.33 0 0.66 0 1 0 C1 3.96 1 7.92 1 12 C-2.13176139 7.82431815 -2.53551172 6.92670782 -2 2 C-1.34 1.34 -0.68 0.68 0 0 Z " fill="#020202" transform="translate(113,26)"/>
<path d="M0 0 C2 2 2 2 2 6 C1.01 6 0.02 6 -1 6 C-1 5.34 -1 4.68 -1 4 C-1.99 3.67 -2.98 3.34 -4 3 C-2.68 2.01 -1.36 1.02 0 0 Z " fill="#0E0E0E" transform="translate(387,41)"/>
<path d="M0 0 C1.8871875 0.061875 1.8871875 0.061875 3.8125 0.125 C3.8125 0.455 3.8125 0.785 3.8125 1.125 C2.3562328 1.48756858 0.89738815 1.83979793 -0.5625 2.1875 C-1.78066406 2.48333984 -1.78066406 2.48333984 -3.0234375 2.78515625 C-5.1875 3.125 -5.1875 3.125 -7.1875 2.125 C-4.09861478 0.06574319 -3.47814073 -0.1140374 0 0 Z " fill="#060606" transform="translate(408.1875,13.875)"/>
</svg>
