<?xml version="1.0" encoding="UTF-8"?>
<svg version="1.1" xmlns="http://www.w3.org/2000/svg" width="452" height="64">
<path d="M0 0 C8.91 0 17.82 0 27 0 C26.67 1.32 26.34 2.64 26 4 C23.36 4 20.72 4 18 4 C18 4.66 18 5.32 18 6 C19.15628906 5.96519531 19.15628906 5.96519531 20.3359375 5.9296875 C21.33882812 5.91164063 22.34171875 5.89359375 23.375 5.875 C24.37273438 5.85179687 25.37046875 5.82859375 26.3984375 5.8046875 C29 6 29 6 31 8 C31 9.32 31 10.64 31 12 C33.31 12.33 35.62 12.66 38 13 C38.495 15.475 38.495 15.475 39 18 C39.66 18 40.32 18 41 18 C41 16.02 41 14.04 41 12 C43.97 12 46.94 12 50 12 C53.57147473 17.59342073 53.45152946 22.58853191 53.375 29 C53.38660156 29.97195312 53.39820312 30.94390625 53.41015625 31.9453125 C53.3878802 37.39551821 53.02034894 41.26971806 50 46 C47.03 46 44.06 46 41 46 C41 44.02 41 42.04 41 40 C40.34 40 39.68 40 39 40 C39.04125 40.78375 39.0825 41.5675 39.125 42.375 C39 45 39 45 37 47 C32.81667717 47.49288831 28.62628324 47.49942571 24.41625977 47.53540039 C22.33588962 47.56219871 20.26071663 47.63702276 18.18164062 47.71289062 C8.34306602 47.90340953 8.34306602 47.90340953 4.6730957 45.43481445 C2.8828125 43.5234375 2.8828125 43.5234375 1.36352539 41.60083008 C0.00910083 39.72322975 0.00910083 39.72322975 -2.87109375 39.09765625 C-6.43554688 39.04882812 -6.43554688 39.04882812 -10 39 C-10 34.71 -10 30.42 -10 26 C-10.99 26 -11.98 26 -13 26 C-13 30.29 -13 34.58 -13 39 C-13.99 38.67 -14.98 38.34 -16 38 C-17.83821805 13.67643611 -17.83821805 13.67643611 -16 10 C-15.01 10 -14.02 10 -13 10 C-13 14.29 -13 18.58 -13 23 C-12.01 23 -11.02 23 -10 23 C-10.01160156 22.14535156 -10.02320313 21.29070313 -10.03515625 20.41015625 C-10.04417969 19.30542969 -10.05320312 18.20070313 -10.0625 17.0625 C-10.07410156 15.96035156 -10.08570313 14.85820312 -10.09765625 13.72265625 C-10 11 -10 11 -9 10 C-6.66702567 9.95907063 -4.33294775 9.95758277 -2 10 C-2 9.01 -2 8.02 -2 7 C1.21451269 5.39274365 4.43612536 5.94251815 8 6 C8 5.34 8 4.68 8 4 C5.36 4 2.72 4 0 4 C0 2.68 0 1.36 0 0 Z " fill="#000000" transform="translate(29,10)"/>
<path d="M0 0 C7.41637447 0.00409654 12.96269547 0.38328627 18.9375 5.3125 C21.14817932 9.64174699 21.32096308 13.48996187 20.4375 18.25 C18.7716743 21.58847855 16.53984564 23.68734441 13.1875 25.3984375 C8.05275809 26.98845701 2.76832169 26.35769337 -2.5625 26.25 C-2.5625 31.53 -2.5625 36.81 -2.5625 42.25 C-4.5425 42.25 -6.5225 42.25 -8.5625 42.25 C-8.58714638 36.42928378 -8.6053343 30.60859766 -8.61743164 24.7878418 C-8.62247267 22.80606559 -8.62930538 20.82429311 -8.63793945 18.8425293 C-8.65001515 16.00047891 -8.65573045 13.15847753 -8.66015625 10.31640625 C-8.66531754 9.42474258 -8.67047882 8.53307892 -8.67579651 7.61439514 C-8.67599177 5.49259399 -8.6246003 3.3708922 -8.5625 1.25 C-6.56415789 -0.74834211 -2.72797286 0.01064189 0 0 Z M-2.5625 5.25 C-2.5625 10.53 -2.5625 15.81 -2.5625 21.25 C6.04600809 22.0390697 6.04600809 22.0390697 13.75 19.125 C15.73856368 15.7370767 16.17615679 14.10742989 15.4375 10.25 C13.20543569 7.40219381 11.88757001 6.40002334 8.4375 5.25 C6.54279184 5.1814505 4.6458166 5.16519628 2.75 5.1875 C0.996875 5.208125 -0.75625 5.22875 -2.5625 5.25 Z " fill="#010101" transform="translate(112.5625,11.75)"/>
<path d="M0 0 C4.13319718 1.53081377 6.86129288 3.07903694 9 7 C9 8.32 9 9.64 9 11 C7.68 11.33 6.36 11.66 5 12 C4.38125 11.195625 3.7625 10.39125 3.125 9.5625 C1.25835959 6.96125481 1.25835959 6.96125481 -1 6 C-6.32967208 5.65907959 -6.32967208 5.65907959 -11 8 C-11.25015873 11.58357241 -11.25015873 11.58357241 -11 15 C-9.845 15.433125 -8.69 15.86625 -7.5 16.3125 C-6.77296875 16.58835937 -6.0459375 16.86421875 -5.296875 17.1484375 C-3.81565821 17.6975961 -2.32625815 18.22538846 -0.828125 18.7265625 C4.06774973 20.40146701 7.57853499 22.15706998 10 27 C10.38683172 31.02304984 10.20643672 33.53327349 8.5625 37.25 C5.11633943 40.94831866 1.98251591 42.29846176 -3 43 C-7.84509008 42.8115362 -11.08415592 41.70149759 -14.9375 38.75 C-17.09379876 35.87493498 -18.11346191 33.465558 -19 30 C-17.35 29.67 -15.7 29.34 -14 29 C-13.484375 29.94875 -12.96875 30.8975 -12.4375 31.875 C-9.45398197 35.70002312 -7.73567804 36.26515341 -3 37 C0.31460798 36.7138877 0.31460798 36.7138877 3 36 C3.85387105 32.69432511 3.85387105 32.69432511 4 29 C1.15837423 25.22263306 -1.38590071 24.39475964 -5.9375 23.5625 C-10.97488138 22.41987447 -13.99369135 21.45763007 -17 17 C-18.33674137 13.15686857 -18.0871167 11.2972217 -16.9375 7.375 C-12.90941822 0.35834141 -7.63329418 -1.13541831 0 0 Z " fill="#010101" transform="translate(251,12)"/>
<path d="M0 0 C1.65 0 3.3 0 5 0 C5.01458252 0.88260498 5.02916504 1.76520996 5.04418945 2.67456055 C5.10542067 5.96438643 5.1796033 9.2533993 5.26245117 12.54272461 C5.29560557 13.96351202 5.32366692 15.38442813 5.34643555 16.80541992 C5.38015847 18.8539082 5.43247745 20.9012272 5.48828125 22.94921875 C5.51446533 24.17987061 5.54064941 25.41052246 5.56762695 26.6784668 C6.02974379 30.22849482 6.86322301 32.1569558 9 35 C11.89103153 36.45377585 14.77616734 36.89015902 18 37 C22.3699252 35.51988333 22.3699252 35.51988333 25 32 C25.14324275 29.68873397 25.22654191 27.373648 25.28125 25.05859375 C25.29965942 24.37571793 25.31806885 23.6928421 25.33703613 22.98927307 C25.41581002 20.06307812 25.48359985 17.1366524 25.55224609 14.21020508 C25.60386152 12.07621484 25.66114393 9.94242928 25.71875 7.80859375 C25.76418945 5.88744751 25.76418945 5.88744751 25.81054688 3.92749023 C26 1 26 1 27 0 C28.66617115 -0.04063832 30.33388095 -0.042721 32 0 C32.087842 4.47904099 32.14067447 8.95785724 32.1875 13.4375 C32.21263672 14.69755859 32.23777344 15.95761719 32.26367188 17.25585938 C32.32678583 25.31340796 32.35546377 33.0344519 26.9375 39.4375 C21.173219 42.50360692 15.50945001 43.78048193 9.125 42 C4.89878417 40.32743402 3.05014237 38.10028475 1 34 C-0.17942085 30.46173745 -0.11289189 27.65851274 -0.09765625 23.92578125 C-0.0962413 23.2419487 -0.09482635 22.55811615 -0.09336853 21.8535614 C-0.08777876 19.67316278 -0.07522822 17.49286749 -0.0625 15.3125 C-0.05748367 13.83268378 -0.052921 12.35286594 -0.04882812 10.87304688 C-0.03781271 7.24866443 -0.02055512 3.6243423 0 0 Z " fill="#000000" transform="translate(374,12)"/>
<path d="M0 0 C2.43440953 1.84679343 2.91895543 2.68318941 3.6875 5.6875 C3.790625 6.450625 3.89375 7.21375 4 8 C2.35 8.33 0.7 8.66 -1 9 C-1.680625 7.7934375 -1.680625 7.7934375 -2.375 6.5625 C-3.74725665 3.91143428 -3.74725665 3.91143428 -6 3 C-11.20166447 2.53259055 -11.20166447 2.53259055 -16 4.0625 C-17.52690415 7.02087678 -17.18468872 9.73716599 -17 13 C-16.21496094 13.17015625 -15.42992187 13.3403125 -14.62109375 13.515625 C-0.0879652 16.8680522 -0.0879652 16.8680522 4 23 C4.86161666 27.76156576 4.44611501 31.18212248 2.125 35.4375 C-1.45857728 39.0923416 -6.05034395 39.75987584 -11 40 C-16.53330868 39.18361019 -19.57245437 37.43564729 -23 33 C-23.8125 29.6875 -23.8125 29.6875 -24 27 C-22.68 26.67 -21.36 26.34 -20 26 C-19.484375 26.94875 -18.96875 27.8975 -18.4375 28.875 C-15.45287606 32.70144095 -13.75894584 33.34359368 -9 34 C-5.65180046 33.24759241 -5.65180046 33.24759241 -3 32 C-2.67 29.69 -2.34 27.38 -2 25 C-6.13837809 21.40934842 -10.695916 20.58429661 -15.90625 19.2578125 C-19.56338631 17.77094647 -20.93053504 16.32805782 -23 13 C-23.61914128 8.1242624 -23.51107738 6.02215476 -21.3125 1.625 C-15.48975635 -4.9846009 -7.05702858 -4.43115748 0 0 Z " fill="#010101" transform="translate(437,15)"/>
<path d="M0 0 C4.89434784 2.40100083 7.15529383 4.8758162 9 10 C9 11.98 9 13.96 9 16 C1.74 16 -5.52 16 -13 16 C-11.12079667 21.23933006 -11.12079667 21.23933006 -7 24 C-2.26388041 24.57973298 -2.26388041 24.57973298 1.875 22.625 C3.06481812 20.98821489 3.06481812 20.98821489 4 19 C5.65 19.33 7.3 19.66 9 20 C7.64530893 24.43353442 5.97128752 26.58269455 2 29 C-4.05491591 30.46489901 -7.41590949 30.11420432 -13 27 C-16.33384269 24.19255352 -17.80621032 22.16522705 -18.203125 17.73046875 C-18.30086177 12.4282491 -18.265072 8.42364593 -15 4 C-9.85718813 0.16810096 -6.36706622 -0.80851635 0 0 Z M-11 7 C-11.66 8.65 -12.32 10.3 -13 12 C-7.39 12 -1.78 12 4 12 C2.45957252 7.19695965 2.45957252 7.19695965 0 5 C-4.72562361 3.63481984 -7.18278124 3.81898436 -11 7 Z " fill="#010101" transform="translate(358,25)"/>
<path d="M0 0 C4.24907661 1.79405457 6.12366698 3.82089463 8 8 C8.36362906 11.61214769 8.2824625 15.1868803 8.1875 18.8125 C8.16719727 20.28106445 8.16719727 20.28106445 8.14648438 21.77929688 C8.11125312 24.18676625 8.06199265 26.59309564 8 29 C6.35 29 4.7 29 3 29 C2.67 28.34 2.34 27.68 2 27 C0.96875 27.515625 -0.0625 28.03125 -1.125 28.5625 C-4.80529009 30.1132674 -7.12847397 30.34661775 -11 29 C-14.28218153 26.50268796 -15.77734513 25.06874335 -16.625 21 C-15.79456673 17.01392031 -14.11743323 15.53744565 -11 13 C-7.85069107 11.95023036 -5.61185544 11.89868405 -2.3125 11.9375 C-1.31863281 11.94652344 -0.32476562 11.95554687 0.69921875 11.96484375 C1.83810547 11.98224609 1.83810547 11.98224609 3 12 C1.85916824 8.96707046 1.85916824 8.96707046 0 6 C-2.86652157 4.82399115 -4.26441626 4.74779986 -7.1875 5.75 C-9.29113844 7.03583873 -9.29113844 7.03583873 -11 10 C-12.32 9.67 -13.64 9.34 -15 9 C-14.79570164 5.3226295 -14.22067989 4.19915015 -11.4375 1.6875 C-7.02494118 -0.47866524 -4.87429954 -0.54158884 0 0 Z M-11 19 C-10.65555119 21.47266765 -10.65555119 21.47266765 -10 24 C-7.15916359 25.42041821 -5.14522722 25.31452272 -2 25 C0.83491939 22.93127504 1.82469988 21.6427671 2.75 18.25 C2.8325 17.5075 2.915 16.765 3 16 C-2.50366792 15.67625483 -6.43672206 15.46713966 -11 19 Z " fill="#010101" transform="translate(153,25)"/>
<path d="M0 0 C4.64425866 2.49413891 8.31375022 4.94125067 10 10 C10.52438572 14.99455908 10.55003096 18.87956656 8.3125 23.4375 C5.00265819 27.10516255 2.45914131 28.61456645 -2.3125 29.875 C-6.82814363 30.02807267 -10.08137735 29.24042991 -14 27 C-18.54452958 22.22241762 -19.36067777 18.96504101 -19.27734375 12.5390625 C-18.72366713 7.47019202 -15.98848103 4.87354138 -12.3125 1.625 C-8.04169873 -0.47011006 -4.6740453 -0.84601895 0 0 Z M-12 7 C-14.6790573 11.01858595 -14.69610694 14.27641721 -14 19 C-12.20606332 21.87029869 -11.01736724 23.49131638 -8 25 C-3.81855989 25.39447548 -1.69053952 25.45035186 1.875 23.125 C4.76285797 20.23714203 4.95830794 19.41692062 5.375 15.25 C5.32810509 12.03183649 4.82172039 10.13940871 2.875 7.5625 C-2.38609513 2.87326303 -6.19697001 3.30716273 -12 7 Z " fill="#010101" transform="translate(305,25)"/>
<path d="M0 0 C3.4203866 1.17013226 3.91540482 1.87310723 6 5 C5.625 7.1875 5.625 7.1875 5 9 C2.40357664 8.51918086 0.76921635 7.85576022 -1.5 6.4375 C-4.0973012 4.66768592 -4.0973012 4.66768592 -8 5 C-8 6.65 -8 8.3 -8 10 C-6.62714844 10.47179687 -6.62714844 10.47179687 -5.2265625 10.953125 C-3.44378906 11.59507813 -3.44378906 11.59507813 -1.625 12.25 C0.15003906 12.87648438 0.15003906 12.87648438 1.9609375 13.515625 C5 15 5 15 6.41796875 16.984375 C7.29892916 20.03521776 6.94324213 21.98162518 6 25 C3.50269776 27.64000522 1.57347142 28.81299845 -1.875 29.9375 C-5.92788119 30.01855762 -8.45366632 28.90956429 -12 27 C-14 24 -14 24 -14 20 C-11.625 20.3125 -11.625 20.3125 -9 21 C-8.34 21.99 -7.68 22.98 -7 24 C-3.92078868 24.25660094 -1.78863007 24.39431504 1 23 C0.8760595 21.02052502 0.8760595 21.02052502 0 19 C-2.18538275 18.00072004 -2.18538275 18.00072004 -4.8125 17.5 C-11.70126161 15.6570838 -11.70126161 15.6570838 -14 12 C-14.66974422 8.06525272 -14.35110528 6.52665792 -12.125 3.1875 C-8.46772352 -0.57734343 -5.03025583 -0.39922665 0 0 Z " fill="#010101" transform="translate(221,25)"/>
<path d="M0 0 C1.65 0.33 3.3 0.66 5 1 C5 3.31 5 5.62 5 8 C7.31 8 9.62 8 12 8 C11.67 9.65 11.34 11.3 11 13 C9.02 13 7.04 13 5 13 C5.33 19.27 5.66 25.54 6 32 C7.98 32.33 9.96 32.66 12 33 C12 34.32 12 35.64 12 37 C10.56344146 37.08131463 9.1255517 37.13933559 7.6875 37.1875 C6.48673828 37.23970703 6.48673828 37.23970703 5.26171875 37.29296875 C3 37 3 37 1.37695312 35.78710938 C-0.43448255 33.43609712 -0.34650637 32.05785021 -0.29296875 29.11328125 C-0.28330078 28.17548828 -0.27363281 27.23769531 -0.26367188 26.27148438 C-0.23853516 25.29501953 -0.21339844 24.31855469 -0.1875 23.3125 C-0.17396484 22.32443359 -0.16042969 21.33636719 -0.14648438 20.31835938 C-0.11112203 17.87835769 -0.06177033 15.43945281 0 13 C-1.98 13 -3.96 13 -6 13 C-5.67 11.35 -5.34 9.7 -5 8 C-3.35 8 -1.7 8 0 8 C0 5.36 0 2.72 0 0 Z " fill="#010101" transform="translate(270,17)"/>
<path d="M0 0 C1.32 0 2.64 0 4 0 C4 2.64 4 5.28 4 8 C6.31 8 8.62 8 11 8 C11.5625 9.9375 11.5625 9.9375 12 12 C11 13 11 13 7.4375 13.0625 C6.303125 13.041875 5.16875 13.02125 4 13 C4.1404983 15.7920301 4.28715383 18.58349796 4.4375 21.375 C4.47681641 22.1690625 4.51613281 22.963125 4.55664062 23.78125 C4.68893404 28.02601221 4.68893404 28.02601221 6 32 C9.02934491 32.65772428 9.02934491 32.65772428 12 33 C12 34.32 12 35.64 12 37 C10.56344146 37.08131463 9.1255517 37.13933559 7.6875 37.1875 C6.48673828 37.23970703 6.48673828 37.23970703 5.26171875 37.29296875 C3 37 3 37 1.37695312 35.78710938 C-0.43448255 33.43609712 -0.34650637 32.05785021 -0.29296875 29.11328125 C-0.28330078 28.17548828 -0.27363281 27.23769531 -0.26367188 26.27148438 C-0.23853516 25.29501953 -0.21339844 24.31855469 -0.1875 23.3125 C-0.17396484 22.32443359 -0.16042969 21.33636719 -0.14648438 20.31835938 C-0.11112203 17.87835769 -0.06177033 15.43945281 0 13 C-1.98 13 -3.96 13 -6 13 C-5.67 11.35 -5.34 9.7 -5 8 C-3.35 8 -1.7 8 0 8 C0 5.36 0 2.72 0 0 Z " fill="#010101" transform="translate(191,17)"/>
<path d="M0 0 C2.475 0.495 2.475 0.495 5 1 C8.41099168 1 11.63088314 0.50854594 15 0 C15 1.65 15 3.3 15 5 C13.329375 5.4021875 13.329375 5.4021875 11.625 5.8125 C7.78159049 6.65809019 7.78159049 6.65809019 6 10 C5.63566627 12.12337771 5.63566627 12.12337771 5.5859375 14.44921875 C5.54726563 15.29677734 5.50859375 16.14433594 5.46875 17.01757812 C5.42234375 18.33918945 5.42234375 18.33918945 5.375 19.6875 C5.33632813 20.58017578 5.29765625 21.47285156 5.2578125 22.39257812 C5.16359782 24.5948462 5.07798412 26.79710722 5 29 C3.35 29 1.7 29 0 29 C0 19.43 0 9.86 0 0 Z " fill="#010101" transform="translate(322,25)"/>
<path d="M0 0 C2.475 0.495 2.475 0.495 5 1 C5.33 1.66 5.66 2.32 6 3 C6.556875 2.505 7.11375 2.01 7.6875 1.5 C10.38162983 -0.24754367 11.85375007 -0.26218749 15 0 C15 1.65 15 3.3 15 5 C13.329375 5.4021875 13.329375 5.4021875 11.625 5.8125 C7.78159049 6.65809019 7.78159049 6.65809019 6 10 C5.63566627 12.12337771 5.63566627 12.12337771 5.5859375 14.44921875 C5.54726562 15.29677734 5.50859375 16.14433594 5.46875 17.01757812 C5.42234375 18.33918945 5.42234375 18.33918945 5.375 19.6875 C5.33632812 20.58017578 5.29765625 21.47285156 5.2578125 22.39257812 C5.16359782 24.5948462 5.07798412 26.79710722 5 29 C3.35 29 1.7 29 0 29 C0 19.43 0 9.86 0 0 Z " fill="#010101" transform="translate(169,25)"/>
</svg>
